<svg width="24" height="24" viewBox="0 0 24 24" fill="none" xmlns="http://www.w3.org/2000/svg">
<g clip-path="url(#clip0_45_1664)">
<path d="M2.17699 21.2308L0 0H23.9469L21.7699 21.2308L11.9469 23.6308" fill="#E34F26"/>
<path d="M12 21.7844L19.9115 19.8921L21.7699 1.70752H12" fill="#EF652A"/>
<path d="M12.0008 9.60041H8.01846L7.75297 6.92348H12.0008V4.33887H4.46094L5.2574 12.2312H12.0008V9.60041ZM12.0008 16.385L8.60253 15.6004L8.39014 13.5235H5.41669L5.78837 17.6312L12.0008 19.1081V16.385Z" fill="#ECEDEE"/>
<path d="M12 12.2312H15.6637L15.292 15.6004L12 16.385V19.1081L18.1062 17.6312L18.9558 9.60041H12V12.2312ZM12 4.33887V6.92348H19.2212L19.4867 4.33887H12Z" fill="white"/>
</g>
<defs>
<clipPath id="clip0_45_1664">
<rect width="24" height="24" fill="white"/>
</clipPath>
</defs>
</svg>
