<svg width="24" height="24" viewBox="0 0 24 24" fill="none" xmlns="http://www.w3.org/2000/svg">
    <path d="M13.2904 9.28894L9.29041 13.2889C9.19669 13.3819 9.12229 13.4925 9.07152 13.6144C9.02075 13.7362 8.99462 13.8669 8.99462 13.9989C8.99462 14.131 9.02075 14.2617 9.07152 14.3835C9.12229 14.5054 9.19669 14.616 9.29041 14.7089C9.38338 14.8027 9.49398 14.8771 9.61584 14.9278C9.7377 14.9786 9.8684 15.0047 10.0004 15.0047C10.1324 15.0047 10.2631 14.9786 10.385 14.9278C10.5068 14.8771 10.6175 14.8027 10.7104 14.7089L14.7104 10.7089C14.8987 10.5206 15.0045 10.2652 15.0045 9.99894C15.0045 9.73264 14.8987 9.47724 14.7104 9.28894C14.5221 9.10064 14.2667 8.99485 14.0004 8.99485C13.7341 8.99485 13.4787 9.10064 13.2904 9.28894Z" fill="white"/>
    <path d="M12.2805 17.3997L11.0005 18.6697C10.2819 19.4101 9.31596 19.8602 8.28681 19.9339C7.25766 20.0077 6.23736 19.7001 5.42052 19.0697C4.98879 18.7139 4.63648 18.2716 4.38636 17.7712C4.13623 17.2708 3.99385 16.7235 3.9684 16.1647C3.94296 15.6058 4.03502 15.0479 4.23864 14.5268C4.44226 14.0058 4.75291 13.5332 5.15052 13.1397L6.57052 11.7097C6.66425 11.6167 6.73864 11.5061 6.78941 11.3843C6.84018 11.2624 6.86632 11.1317 6.86632 10.9997C6.86632 10.8677 6.84018 10.737 6.78941 10.6151C6.73864 10.4933 6.66425 10.3827 6.57052 10.2897C6.47756 10.196 6.36695 10.1216 6.2451 10.0708C6.12324 10.02 5.99253 9.9939 5.86052 9.9939C5.72851 9.9939 5.5978 10.02 5.47594 10.0708C5.35408 10.1216 5.24348 10.196 5.15052 10.2897L3.88052 11.5697C2.81068 12.6057 2.1531 13.9947 2.02989 15.4789C1.90667 16.963 2.32617 18.4414 3.21052 19.6397C3.7354 20.3206 4.39916 20.8821 5.15771 21.2867C5.91626 21.6914 6.75223 21.9301 7.6101 21.9868C8.46797 22.0436 9.32809 21.9171 10.1333 21.6159C10.9386 21.3147 11.6705 20.8455 12.2805 20.2397L13.7005 18.8197C13.8888 18.6314 13.9946 18.376 13.9946 18.1097C13.9946 17.8434 13.8888 17.588 13.7005 17.3997C13.5122 17.2114 13.2568 17.1056 12.9905 17.1056C12.7242 17.1056 12.4688 17.2114 12.2805 17.3997Z" fill="white"/>
    <path d="M19.6606 3.21924C18.4541 2.32571 16.9635 1.90193 15.4674 2.02707C13.9713 2.15221 12.5719 2.8177 11.5306 3.89924L10.4506 4.99924C10.3271 5.08898 10.2239 5.20364 10.1476 5.3358C10.0713 5.46796 10.0235 5.61467 10.0075 5.76644C9.99149 5.91821 10.0075 6.07165 10.0546 6.21683C10.1016 6.36202 10.1786 6.4957 10.2806 6.60924C10.3735 6.70297 10.4841 6.77737 10.606 6.82813C10.7278 6.8789 10.8586 6.90504 10.9906 6.90504C11.1226 6.90504 11.2533 6.8789 11.3751 6.82813C11.497 6.77737 11.6076 6.70297 11.7006 6.60924L13.0006 5.29924C13.7152 4.55556 14.68 4.10308 15.7087 4.0292C16.7374 3.95533 17.757 4.2653 18.5706 4.89924C19.0055 5.25505 19.3606 5.6985 19.6127 6.20071C19.8648 6.70292 20.0083 7.25261 20.0338 7.81397C20.0592 8.37533 19.9662 8.93576 19.7606 9.45874C19.555 9.98172 19.2415 10.4555 18.8406 10.8492L17.4206 12.2792C17.3268 12.3722 17.2524 12.4828 17.2017 12.6047C17.1509 12.7265 17.1248 12.8572 17.1248 12.9892C17.1248 13.1213 17.1509 13.252 17.2017 13.3738C17.2524 13.4957 17.3268 13.6063 17.4206 13.6992C17.5135 13.793 17.6241 13.8674 17.746 13.9181C17.8678 13.9689 17.9985 13.995 18.1306 13.995C18.2626 13.995 18.3933 13.9689 18.5151 13.9181C18.637 13.8674 18.7476 13.793 18.8406 13.6992L20.2606 12.2792C20.8647 11.6693 21.3324 10.938 21.6326 10.1338C21.9328 9.32952 22.0588 8.47064 22.002 7.61405C21.9453 6.75745 21.7072 5.92268 21.3036 5.16503C20.8999 4.40738 20.3399 3.74414 19.6606 3.21924Z" fill="white"/>
</svg>
