<svg width="21" height="24" viewBox="0 0 21 24" fill="none" xmlns="http://www.w3.org/2000/svg">
<g clip-path="url(#clip0_45_1670)">
<path d="M1.89231 21.2303L0 -0.000488281H20.8154L18.9231 21.2303L10.3846 23.6303" fill="#0C73B8"/>
<path d="M10.4297 21.784L17.3066 19.8916L18.922 1.70703H10.4297" fill="#30A9DC"/>
<path d="M10.4308 9.59943H4.33849L4.56926 12.2302H10.4308V9.59943ZM10.4308 4.33789H3.87695L4.10772 6.92251H10.4308V4.33789ZM10.4308 16.384L4.70772 14.861L5.0308 17.6302L10.4308 19.1071V16.384Z" fill="#ECEDEE"/>
<path d="M10.4297 12.2302H13.6143L13.2912 15.5994L10.4297 16.384V19.1071L15.7374 17.6302L16.9374 4.33789H10.4297V6.92251H14.122L13.8451 9.59943H10.4297V12.2302Z" fill="white"/>
</g>
<defs>
<clipPath id="clip0_45_1670">
<rect width="20.8615" height="24" fill="white"/>
</clipPath>
</defs>
</svg>
