<svg width="42" height="24" viewBox="0 0 42 24" fill="none" xmlns="http://www.w3.org/2000/svg">
<g clip-path="url(#clip0_46_1638)">
<path d="M41.684 23.3777C40.1793 23.7603 39.2485 23.3945 38.4136 22.1407L32.4746 13.9242L31.6162 12.7864L24.6806 22.168C23.8882 23.2967 23.0571 23.7876 21.5781 23.3883L30.4592 11.4666L22.1908 0.69787C23.6127 0.42143 24.5953 0.561977 25.4678 1.83559L31.6276 10.1545L37.8328 1.88088C38.6277 0.752165 39.4824 0.323389 40.9096 0.739135L37.7037 4.98967L33.3601 10.6454C32.8429 11.2916 32.914 11.7341 33.3899 12.358L41.684 23.3777ZM0.326955 11.2674L1.05327 7.69419C3.03116 0.622788 11.1367 -2.31566 16.7266 2.0537C19.9933 4.62356 20.8052 8.25886 20.6436 12.331H2.22977C1.95333 19.6608 7.22895 24.0845 13.9547 21.8277C16.3139 21.0353 17.7036 19.1877 18.3992 16.8766C18.7522 15.7184 19.3361 15.5372 20.4248 15.8682C19.8692 18.7589 18.6151 21.1737 15.9649 22.6849C12.0054 24.947 6.35309 24.2154 3.3802 21.0716C1.60894 19.2473 0.877353 16.9361 0.5491 14.4643C0.497287 14.0557 0.393971 13.6667 0.316406 13.2751C0.323232 12.6062 0.326955 11.9376 0.326955 11.2687V11.2674ZM2.26327 10.7763H18.9033C18.7947 5.47615 15.4945 1.71148 10.984 1.67953C6.03291 1.64074 2.47766 5.31575 2.26296 10.7763H2.26327Z" fill="white"/>
</g>
<defs>
<clipPath id="clip0_46_1638">
<rect width="41.3676" height="24" fill="white" transform="translate(0.316406)"/>
</clipPath>
</defs>
</svg>
