<svg width="12" height="24" viewBox="0 0 12 24" fill="none" xmlns="http://www.w3.org/2000/svg">
<g clip-path="url(#clip0_45_1761)">
<path d="M10.9012 9.54712C9.63645 3.97247 6.99954 2.48589 6.32998 1.43703C6.04891 0.977187 5.80299 0.496813 5.59427 0C5.56121 0.495527 5.49508 0.80936 5.0735 1.181C4.22208 1.93255 0.626274 4.86442 0.328689 11.1989C0.0476378 17.1122 4.67672 20.7543 5.28843 21.1342C5.7596 21.3655 6.32998 21.1342 6.61102 20.9195C8.8429 19.3916 11.8932 15.3118 10.9095 9.54712" fill="#10AA50"/>
<path d="M5.78503 17.9878C5.66931 19.4496 5.58664 20.3002 5.28906 21.1344C5.28906 21.1344 5.47919 22.5219 5.61971 24.0002H6.09915C6.21707 22.9615 6.3937 21.9302 6.62816 20.9114C6.00822 20.6058 5.80983 19.2679 5.78503 17.9878Z" fill="#B8C4C2"/>
<path d="M6.62773 20.9114C5.99952 20.6223 5.8094 19.2596 5.7846 17.9878C5.94304 15.8885 5.98994 13.7823 5.92513 11.678C5.89206 10.5796 5.93339 1.46194 5.65234 0.124023C5.84844 0.576485 6.0749 1.0152 6.3302 1.43717C6.99976 2.48604 9.63666 3.97261 10.9014 9.54726C11.8933 15.3036 8.85961 19.3752 6.62773 20.9114Z" fill="#12924F"/>
</g>
<defs>
<clipPath id="clip0_45_1761">
<rect width="10.8387" height="24" fill="white" transform="translate(0.316406)"/>
</clipPath>
</defs>
</svg>
