<svg width="25" height="24" viewBox="0 0 25 24" fill="none" xmlns="http://www.w3.org/2000/svg">
<path d="M12.312 2.25C12.0383 2.25 11.7646 2.31715 11.5283 2.45215L4.0957 6.74268C3.6157 7.02018 3.31641 7.54559 3.31641 8.10059V15.8848C3.31641 16.4473 3.6157 16.9652 4.0957 17.2427L6.04688 18.3677C6.99187 18.8327 7.32885 18.832 7.75635 18.832C9.15885 18.832 9.96094 17.9846 9.96094 16.5146V8.48291C9.96094 8.36291 9.86414 8.26465 9.74414 8.26465H8.80664C8.67914 8.26465 8.58838 8.36291 8.58838 8.48291V16.5073C8.58838 17.1673 7.9067 17.8121 6.8042 17.2646L4.76367 16.0869C4.68867 16.0494 4.64355 15.9673 4.64355 15.8848V8.10791C4.64355 8.01791 4.68867 7.94197 4.76367 7.89697L12.1963 3.60791C12.2638 3.56291 12.3542 3.56291 12.4292 3.60791L19.8618 7.89697C19.9368 7.94197 19.9819 8.01809 19.9819 8.10059V15.8848C19.9819 15.9673 19.9366 16.0494 19.8691 16.0869L12.4292 20.3848C12.3617 20.4223 12.2638 20.4223 12.1963 20.3848L10.2832 19.2524C10.2307 19.2149 10.157 19.2078 10.1045 19.2378C9.57199 19.5378 9.47449 19.5751 8.97949 19.7476C8.85949 19.7851 8.67188 19.8598 9.04688 20.0698L11.5283 21.5405C11.7683 21.6755 12.0391 21.75 12.3091 21.75C12.5866 21.75 12.8557 21.6755 13.0957 21.5405L20.5371 17.2427C21.0171 16.9652 21.3164 16.4473 21.3164 15.8848V8.10791C21.3164 7.54541 21.0171 7.0275 20.5371 6.75L13.0957 2.45215C12.8595 2.31715 12.5858 2.25 12.312 2.25ZM14.3115 8.25439C12.189 8.25439 10.9219 9.15381 10.9219 10.6538C10.9219 12.2813 12.1807 12.7306 14.2207 12.9331C16.6582 13.1731 16.8457 13.5342 16.8457 14.0142C16.8457 14.8392 16.1793 15.1919 14.6118 15.1919C12.6393 15.1919 12.204 14.6962 12.0615 13.7212C12.0465 13.6162 11.9571 13.541 11.8521 13.541H10.8838C10.7638 13.541 10.6743 13.6395 10.6743 13.752C10.6743 15.0045 11.3568 16.4956 14.6118 16.4956C16.9668 16.4956 18.3164 15.5668 18.3164 13.9468C18.3164 12.3418 17.2287 11.9135 14.9487 11.606C12.6312 11.306 12.3984 11.1484 12.3984 10.6084C12.3984 10.1584 12.6015 9.56689 14.3115 9.56689C15.834 9.56689 16.4037 9.89584 16.6362 10.9233C16.6587 11.0208 16.7407 11.0962 16.8457 11.0962H17.814C17.874 11.0962 17.9257 11.0665 17.9707 11.0215C18.0082 10.984 18.0309 10.9235 18.0234 10.856C17.8734 9.08596 16.6965 8.25439 14.3115 8.25439Z" fill="#84CE24"/>
</svg>
