<svg width="27" height="24" viewBox="0 0 27 24" fill="none" xmlns="http://www.w3.org/2000/svg">
    <path d="M13.401 14.3476C14.7289 14.3476 15.8053 13.2711 15.8053 11.9433C15.8053 10.6155 14.7289 9.53902 13.401 9.53902C12.0732 9.53902 10.9967 10.6155 10.9967 11.9433C10.9967 13.2711 12.0732 14.3476 13.401 14.3476Z" fill="#61DAFB"/>
    <path fill-rule="evenodd" clip-rule="evenodd" d="M10.9 7.61131C10.443 8.27972 9.99685 8.98777 9.56814 9.73032C9.13943 10.4729 8.74933 11.2133 8.39895 11.9432C8.74933 12.6732 9.13943 13.4136 9.56814 14.1562C9.99685 14.8987 10.4431 15.6068 10.9 16.2752C11.7073 16.3367 12.5436 16.3691 13.401 16.3691C14.2585 16.3691 15.0947 16.3367 15.9021 16.2752C16.359 15.6068 16.8052 14.8987 17.2339 14.1562C17.6626 13.4136 18.0527 12.6732 18.4031 11.9432C18.0527 11.2133 17.6626 10.4729 17.2339 9.73032C16.8052 8.98777 16.359 8.27972 15.9021 7.61131C15.0947 7.54979 14.2585 7.51739 13.401 7.51739C12.5436 7.51739 11.7073 7.54979 10.9 7.61131ZM9.61587 7.73628C9.30389 8.21814 8.99863 8.71673 8.70211 9.23032C8.40559 9.74391 8.12642 10.2576 7.86511 10.7687C7.48535 9.88313 7.16723 9.02068 6.9128 8.19726C7.75311 8.00589 8.65908 7.85017 9.61587 7.73628ZM11.6503 6.56172C12.2236 6.53246 12.808 6.51739 13.401 6.51739C13.9941 6.51739 14.5785 6.53246 15.1518 6.56172C14.5748 5.79006 13.9869 5.08333 13.401 4.45128C12.8151 5.08333 12.2273 5.79006 11.6503 6.56172ZM12.7034 3.73295C11.9068 4.58847 11.1124 5.57001 10.3473 6.6541C9.02597 6.7746 7.77872 6.97183 6.6395 7.23396C6.50258 6.70227 6.39489 6.19115 6.31708 5.70546C6.12506 4.50696 6.11937 3.49041 6.28589 2.71188C6.45242 1.93329 6.77673 1.44831 7.20052 1.20363C7.6243 0.958961 8.20646 0.920592 8.96401 1.16567C9.72149 1.41072 10.599 1.92393 11.5409 2.68947C11.9226 2.9997 12.3114 3.34852 12.7034 3.73295ZM14.0986 3.73295C14.8952 4.58847 15.6897 5.57001 16.4547 6.6541C17.7761 6.7746 19.0233 6.97183 20.1626 7.23396C20.2995 6.70227 20.4072 6.19114 20.485 5.70546C20.677 4.50696 20.6827 3.49041 20.5162 2.71188C20.3496 1.93329 20.0253 1.44831 19.6015 1.20363C19.1778 0.95896 18.5956 0.920592 17.8381 1.16567C17.0806 1.41072 16.2031 1.92393 15.2611 2.68947C14.8794 2.9997 14.4906 3.34852 14.0986 3.73295ZM21.1319 7.47985C21.2759 6.92027 21.3897 6.3799 21.4724 5.86366C21.6757 4.5946 21.6954 3.44425 21.4941 2.50272C21.2927 1.56127 20.8558 0.773052 20.1015 0.337609C19.3473 -0.097835 18.4463 -0.082122 17.5302 0.214215C16.6142 0.510574 15.6278 1.10284 14.6304 1.91345C14.2247 2.2432 13.8136 2.61196 13.401 3.01645C12.9884 2.61196 12.5774 2.2432 12.1716 1.91345C11.1743 1.10284 10.1879 0.510575 9.27181 0.214215C8.3558 -0.0821213 7.45473 -0.0978344 6.70052 0.337609C5.94631 0.773053 5.50937 1.56127 5.308 2.50272C5.10662 3.44425 5.12635 4.5946 5.32967 5.86366C5.41238 6.3799 5.52621 6.92027 5.67021 7.47985C5.1136 7.63493 4.58871 7.80654 4.10027 7.99303C2.89958 8.45148 1.89348 9.00957 1.17879 9.65473C0.464147 10.2999 0 11.0724 0 11.9432C0 12.8141 0.464147 13.5866 1.17879 14.2317C1.89348 14.8769 2.89958 15.435 4.10027 15.8935C4.58871 16.0799 5.1136 16.2516 5.67021 16.4066C5.5262 16.9662 5.41238 17.5066 5.32967 18.0228C5.12635 19.2919 5.10662 20.4422 5.308 21.3838C5.50937 22.3252 5.94631 23.1134 6.70052 23.5489C7.45473 23.9843 8.3558 23.9686 9.27181 23.6723C10.1879 23.3759 11.1743 22.7836 12.1716 21.973C12.5774 21.6433 12.9884 21.2745 13.401 20.87C13.8136 21.2745 14.2247 21.6433 14.6304 21.973C15.6278 22.7836 16.6142 23.3759 17.5302 23.6723C18.4463 23.9686 19.3473 23.9843 20.1015 23.5489C20.8558 23.1134 21.2927 22.3252 21.4941 21.3838C21.6954 20.4422 21.6757 19.2919 21.4724 18.0228C21.3897 17.5066 21.2759 16.9662 21.1319 16.4066C21.6885 16.2516 22.2134 16.0799 22.7018 15.8935C23.9025 15.435 24.9086 14.8769 25.6233 14.2317C26.3379 13.5866 26.8021 12.8141 26.8021 11.9432C26.8021 11.0724 26.3379 10.2999 25.6233 9.65473C24.9086 9.00957 23.9025 8.45148 22.7018 7.99303C22.2134 7.80654 21.6885 7.63493 21.1319 7.47985ZM19.8893 8.19726C19.0489 8.00589 18.143 7.85017 17.1862 7.73628C17.4982 8.21814 17.8034 8.71673 18.1 9.23032C18.3965 9.74391 18.6756 10.2576 18.9369 10.7687C19.3167 9.88314 19.6348 9.02068 19.8893 8.19726ZM19.5084 11.9432C20.0647 10.7386 20.5176 9.55988 20.8602 8.44223C21.3891 8.58949 21.8856 8.7518 22.3451 8.92725C23.479 9.36021 24.3622 9.86355 24.9532 10.397C25.5442 10.9305 25.8021 11.4539 25.8021 11.9432C25.8021 12.4326 25.5442 12.9559 24.9532 13.4895C24.3622 14.0229 23.479 14.5263 22.3451 14.9592C21.8856 15.1347 21.3891 15.297 20.8602 15.4443C20.5176 14.3266 20.0647 13.1478 19.5084 11.9432ZM18.9369 13.1178C18.6756 13.6289 18.3965 14.1426 18.1 14.6562C17.8034 15.1698 17.4982 15.6683 17.1862 16.1502C18.143 16.0363 19.0489 15.8806 19.8893 15.6892C19.6348 14.8658 19.3167 14.0034 18.9369 13.1178ZM20.1626 16.6525C19.0233 16.9147 17.7761 17.1119 16.4547 17.2324C15.6897 18.3165 14.8952 19.298 14.0986 20.1535C14.4906 20.538 14.8794 20.8868 15.2611 21.197C16.2031 21.9626 17.0806 22.4758 17.8381 22.7208C18.5956 22.9659 19.1778 22.9275 19.6015 22.6829C20.0253 22.4382 20.3496 21.9532 20.5162 21.1746C20.6827 20.3961 20.677 19.3795 20.485 18.181C20.4072 17.6953 20.2995 17.1842 20.1626 16.6525ZM13.401 19.4352C13.9869 18.8032 14.5748 18.0964 15.1518 17.3248C14.5785 17.354 13.9941 17.3691 13.401 17.3691C12.808 17.3691 12.2236 17.354 11.6503 17.3248C12.2273 18.0964 12.8151 18.8032 13.401 19.4352ZM9.61587 16.1502C9.30389 15.6683 8.99863 15.1698 8.70211 14.6562C8.40559 14.1426 8.12642 13.6289 7.86512 13.1178C7.48535 14.0034 7.16723 14.8658 6.9128 15.6892C7.75311 15.8806 8.65909 16.0363 9.61587 16.1502ZM6.6395 16.6525C7.77872 16.9147 9.02597 17.1119 10.3473 17.2324C11.1124 18.3165 11.9068 19.298 12.7034 20.1535C12.3114 20.538 11.9226 20.8868 11.5409 21.197C10.599 21.9626 9.72149 22.4758 8.96401 22.7208C8.20646 22.9659 7.6243 22.9275 7.20052 22.6829C6.77673 22.4382 6.45242 21.9532 6.28589 21.1746C6.11937 20.3961 6.12506 19.3795 6.31708 18.181C6.39489 17.6953 6.50258 17.1842 6.6395 16.6525ZM5.94191 15.4443C5.41299 15.297 4.9165 15.1347 4.45698 14.9592C3.32304 14.5263 2.43983 14.0229 1.84887 13.4895C1.25785 12.9559 1 12.4326 1 11.9432C1 11.4539 1.25785 10.9305 1.84887 10.397C2.43983 9.86355 3.32304 9.36021 4.45698 8.92725C4.9165 8.7518 5.41299 8.58949 5.94191 8.44223C6.2845 9.55988 6.73733 10.7386 7.29365 11.9432C6.73733 13.1478 6.2845 14.3266 5.94191 15.4443ZM13.401 10.039C12.3493 10.039 11.4967 10.8915 11.4967 11.9432C11.4967 12.9949 12.3493 13.8475 13.401 13.8475C14.4527 13.8475 15.3053 12.9949 15.3053 11.9432C15.3053 10.8915 14.4527 10.039 13.401 10.039ZM10.4967 11.9432C10.4967 10.3393 11.797 9.03896 13.401 9.03896C15.005 9.03896 16.3053 10.3393 16.3053 11.9432C16.3053 13.5472 15.005 14.8475 13.401 14.8475C11.797 14.8475 10.4967 13.5472 10.4967 11.9432Z" fill="#61DAFB"/>
</svg>
