<svg width="27" height="24" viewBox="0 0 27 24" fill="none" xmlns="http://www.w3.org/2000/svg">
    <g clip-path="url(#clip0_154_1534)">
        <path d="M13.5 14.4043C14.8278 14.4043 15.9043 13.3278 15.9043 12C15.9043 10.6721 14.8278 9.5957 13.5 9.5957C12.1721 9.5957 11.0957 10.6721 11.0957 12C11.0957 13.3278 12.1721 14.4043 13.5 14.4043Z" fill="#61DAFB"/>
        <path d="M13.4997 16.9254C20.6247 16.9254 26.4007 14.72 26.4007 11.9996C26.4007 9.27911 20.6247 7.07373 13.4997 7.07373C6.37462 7.07373 0.598633 9.27911 0.598633 11.9996C0.598633 14.72 6.37462 16.9254 13.4997 16.9254Z" stroke="#61DAFB"/>
        <path d="M9.23413 14.4627C12.7966 20.6332 17.5946 24.5327 19.9506 23.1724C22.3065 21.8122 21.3285 15.7073 17.7659 9.53688C14.2034 3.36641 9.40552 -0.533054 7.04952 0.827182C4.69352 2.18742 5.67161 8.29226 9.23413 14.4627Z" stroke="#61DAFB"/>
        <path d="M9.23349 9.53681C5.67096 15.7073 4.69288 21.8121 7.04888 23.1724C9.40488 24.5326 14.2028 20.6331 17.7653 14.4627C21.3278 8.29219 22.3059 2.18735 19.9499 0.827115C17.5939 -0.533121 12.796 3.36634 9.23349 9.53681Z" stroke="#61DAFB"/>
    </g>
    <defs>
        <clipPath id="clip0_154_1534">
            <rect width="26.9749" height="24" fill="white" transform="translate(0.0126953)"/>
        </clipPath>
    </defs>
</svg>
